<svg width="27" height="27" viewBox="0 0 27 27" fill="none" xmlns="http://www.w3.org/2000/svg">
<path d="M24.3474 10.9818H23.4664V10.9364H13.6237V15.3109H19.8044C18.9027 17.8575 16.4797 19.6855 13.6237 19.6855C9.99989 19.6855 7.06182 16.7474 7.06182 13.1237C7.06182 9.49989 9.99989 6.56182 13.6237 6.56182C15.2964 6.56182 16.8182 7.19285 17.9769 8.22361L21.0703 5.13024C19.117 3.30988 16.5043 2.18726 13.6237 2.18726C7.58403 2.18726 2.68726 7.08403 2.68726 13.1237C2.68726 19.1633 7.58403 24.0601 13.6237 24.0601C19.6633 24.0601 24.5601 19.1633 24.5601 13.1237C24.5601 12.3904 24.4846 11.6746 24.3474 10.9818Z" fill="#FFC107"/>
<path d="M3.94824 8.03332L7.5414 10.6684C8.51365 8.26134 10.8683 6.56182 13.6237 6.56182C15.2964 6.56182 16.8182 7.19285 17.9769 8.22361L21.0703 5.13024C19.117 3.30988 16.5043 2.18726 13.6237 2.18726C9.42301 2.18726 5.78009 4.55882 3.94824 8.03332Z" fill="#FF3D00"/>
<path d="M13.6236 24.0601C16.4485 24.0601 19.0152 22.979 20.9559 21.221L17.5711 18.3567C16.4364 19.2202 15.0495 19.687 13.6236 19.6855C10.779 19.6855 8.36372 17.8717 7.45381 15.3405L3.88745 18.0882C5.69743 21.63 9.37316 24.0601 13.6236 24.0601Z" fill="#4CAF50"/>
<path d="M24.3475 10.9818H23.4665V10.9364H13.6238V15.311H19.8045C19.3732 16.5229 18.5962 17.582 17.5696 18.3573L17.5713 18.3562L20.9561 21.2205C20.7166 21.4381 24.5602 18.5919 24.5602 13.1237C24.5602 12.3904 24.4847 11.6746 24.3475 10.9818Z" fill="#1976D2"/>
</svg>
