<svg width="189" height="54" viewBox="0 0 189 54" fill="none" xmlns="http://www.w3.org/2000/svg">
<path fill-rule="evenodd" clip-rule="evenodd" d="M184 28.2101C166.705 38.904 131.169 46.2386 90.139 46.2386C55.1117 46.2386 24.0882 40.8931 5 32.6755C21.973 42.6509 54.2815 49.3886 91.3465 49.3886C133.709 49.3886 169.858 40.5873 184 28.2101Z" fill="#D9D9D9"/>
<path d="M6.69337 11.853C7.3267 11.8783 8.17537 11.9036 9.23937 11.929C10.3287 11.9543 11.4054 11.967 12.4694 11.967C13.6854 11.967 14.8634 11.9543 16.0034 11.929C17.1434 11.9036 17.954 11.891 18.4354 11.891C20.7914 11.891 22.742 12.157 24.2874 12.689C25.858 13.1956 27.0234 13.943 27.7834 14.931C28.5687 15.919 28.9614 17.1096 28.9614 18.503C28.9614 19.3643 28.784 20.2383 28.4294 21.125C28.0747 21.9863 27.4667 22.797 26.6054 23.557C25.7694 24.2916 24.6167 24.887 23.1474 25.343C21.678 25.7736 19.8287 25.989 17.5994 25.989H13.9514V25.229H17.2194C18.714 25.229 19.8414 24.9503 20.6014 24.393C21.3867 23.8103 21.9187 23.0503 22.1974 22.113C22.5014 21.1503 22.6534 20.0863 22.6534 18.921C22.6534 16.9196 22.2987 15.3743 21.5894 14.285C20.88 13.1703 19.664 12.613 17.9414 12.613C16.9534 12.613 16.3074 12.8283 16.0034 13.259C15.7247 13.6896 15.5854 14.5636 15.5854 15.881V34.729C15.5854 35.641 15.6487 36.325 15.7754 36.781C15.9274 37.237 16.206 37.541 16.6114 37.693C17.0167 37.845 17.6247 37.9463 18.4354 37.997V38.757C17.7514 38.7063 16.89 38.681 15.8514 38.681C14.8127 38.6556 13.7614 38.643 12.6974 38.643C11.4814 38.643 10.3287 38.6556 9.23937 38.681C8.17537 38.681 7.3267 38.7063 6.69337 38.757V37.997C7.50403 37.9463 8.11203 37.845 8.51737 37.693C8.9227 37.541 9.1887 37.237 9.31537 36.781C9.46737 36.325 9.54337 35.641 9.54337 34.729V15.881C9.54337 14.9436 9.46737 14.2596 9.31537 13.829C9.1887 13.373 8.91003 13.069 8.47937 12.917C8.07403 12.7396 7.4787 12.6383 6.69337 12.613V11.853ZM13.8754 25.343C14.9647 25.3683 15.902 25.419 16.6874 25.495C17.498 25.571 18.2074 25.647 18.8154 25.723C19.4234 25.7736 19.968 25.8116 20.4494 25.837C22.7547 26.0396 24.452 26.5336 25.5414 27.319C26.656 28.1043 27.378 29.2823 27.7074 30.853L28.5814 34.767C28.8094 35.7803 29.05 36.4896 29.3034 36.895C29.5567 37.3003 29.924 37.503 30.4054 37.503C30.7347 37.4776 31.0007 37.4016 31.2034 37.275C31.4314 37.123 31.672 36.9076 31.9254 36.629L32.4574 37.085C31.7734 37.8703 31.0387 38.4276 30.2534 38.757C29.468 39.1116 28.518 39.289 27.4034 39.289C26.0354 39.289 24.908 38.9976 24.0214 38.415C23.1347 37.8323 22.552 36.7556 22.2734 35.185L21.5894 31.385C21.412 30.321 21.1967 29.3963 20.9434 28.611C20.69 27.8003 20.3354 27.167 19.8794 26.711C19.4487 26.2296 18.8407 25.989 18.0554 25.989H13.9514L13.8754 25.343ZM40.5279 18.579C42.7572 18.579 44.5052 19.2376 45.7719 20.555C47.0386 21.8723 47.6719 24.0256 47.6719 27.015H35.1699L35.0939 26.293H42.8839C42.9092 25.0516 42.8332 23.9116 42.6559 22.873C42.4786 21.809 42.1999 20.9603 41.8199 20.327C41.4399 19.6936 40.9332 19.377 40.2999 19.377C39.4132 19.377 38.6532 19.9343 38.0199 21.049C37.4119 22.1636 37.0446 24.013 36.9179 26.597L37.0319 26.825C37.0066 27.129 36.9812 27.4456 36.9559 27.775C36.9559 28.1043 36.9559 28.4463 36.9559 28.801C36.9559 30.549 37.1966 31.9676 37.6779 33.057C38.1846 34.1463 38.8179 34.9443 39.5779 35.451C40.3379 35.9323 41.1106 36.173 41.8959 36.173C42.4279 36.173 42.9726 36.097 43.5299 35.945C44.1126 35.7676 44.6952 35.4636 45.2779 35.033C45.8606 34.577 46.4052 33.9436 46.9119 33.133L47.5959 33.361C47.2919 34.3236 46.8106 35.261 46.1519 36.173C45.4932 37.085 44.6572 37.8323 43.6439 38.415C42.6306 38.9976 41.4146 39.289 39.9959 39.289C38.2732 39.289 36.7532 38.9216 35.4359 38.187C34.1186 37.4523 33.0799 36.3376 32.3199 34.843C31.5852 33.3483 31.2179 31.4483 31.2179 29.143C31.2179 26.787 31.6106 24.8236 32.3959 23.253C33.2066 21.6823 34.3086 20.517 35.7019 19.757C37.1206 18.9716 38.7292 18.579 40.5279 18.579ZM53.2164 39.023C52.0764 39.023 51.1264 38.8076 50.3664 38.377C49.6064 37.9463 49.049 37.3763 48.6944 36.667C48.3397 35.9323 48.1624 35.1343 48.1624 34.273C48.1624 33.1836 48.403 32.297 48.8844 31.613C49.391 30.929 50.037 30.3716 50.8224 29.941C51.6077 29.5103 52.431 29.1556 53.2924 28.877C54.179 28.5983 55.015 28.3323 55.8004 28.079C56.611 27.8003 57.257 27.4836 57.7384 27.129C58.245 26.749 58.4984 26.2676 58.4984 25.685V22.721C58.4984 22.0623 58.3844 21.4796 58.1564 20.973C57.9537 20.441 57.6244 20.0356 57.1684 19.757C56.7377 19.4783 56.1677 19.339 55.4584 19.339C54.9517 19.339 54.445 19.415 53.9384 19.567C53.4317 19.6936 53.0137 19.9216 52.6844 20.251C53.3937 20.5043 53.9384 20.897 54.3184 21.429C54.7237 21.9356 54.9264 22.5183 54.9264 23.177C54.9264 24.0383 54.6224 24.7223 54.0144 25.229C53.4317 25.7356 52.735 25.989 51.9244 25.989C51.0124 25.989 50.3157 25.7103 49.8344 25.153C49.3784 24.5703 49.1504 23.8736 49.1504 23.063C49.1504 22.3283 49.3277 21.7203 49.6824 21.239C50.0624 20.7576 50.5817 20.3016 51.2404 19.871C51.9497 19.4656 52.7984 19.149 53.7864 18.921C54.7997 18.693 55.889 18.579 57.0544 18.579C58.2197 18.579 59.271 18.7056 60.2084 18.959C61.1457 19.187 61.931 19.6176 62.5644 20.251C63.147 20.8336 63.527 21.5556 63.7044 22.417C63.8817 23.253 63.9704 24.317 63.9704 25.609V35.945C63.9704 36.5783 64.0337 37.0216 64.1604 37.275C64.287 37.503 64.5024 37.617 64.8064 37.617C65.0344 37.617 65.2497 37.5536 65.4524 37.427C65.6804 37.3003 65.921 37.1483 66.1744 36.971L66.5544 37.617C66.0224 38.073 65.4017 38.4276 64.6924 38.681C64.0084 38.909 63.2357 39.023 62.3744 39.023C61.437 39.023 60.6897 38.8963 60.1324 38.643C59.575 38.3643 59.1697 37.997 58.9164 37.541C58.6884 37.085 58.5744 36.553 58.5744 35.945C57.9664 36.9076 57.2317 37.6676 56.3704 38.225C55.509 38.757 54.4577 39.023 53.2164 39.023ZM55.9144 36.591C56.421 36.591 56.877 36.477 57.2824 36.249C57.713 35.9956 58.1184 35.5903 58.4984 35.033V27.243C58.2704 27.623 57.9537 27.965 57.5484 28.269C57.143 28.573 56.7124 28.8896 56.2564 29.219C55.8004 29.523 55.357 29.865 54.9264 30.245C54.521 30.625 54.1917 31.0936 53.9384 31.651C53.685 32.2083 53.5584 32.8796 53.5584 33.665C53.5584 34.653 53.7737 35.3876 54.2044 35.869C54.635 36.3503 55.205 36.591 55.9144 36.591ZM73.4923 9.00296V35.223C73.4923 36.287 73.6697 37.009 74.0243 37.389C74.4043 37.769 75.0377 37.959 75.9243 37.959V38.757C75.443 38.7316 74.721 38.7063 73.7583 38.681C72.7957 38.6303 71.8203 38.605 70.8323 38.605C69.8443 38.605 68.8437 38.6303 67.8303 38.681C66.8423 38.7063 66.095 38.7316 65.5883 38.757V37.959C66.475 37.959 67.0957 37.769 67.4503 37.389C67.8303 37.009 68.0203 36.287 68.0203 35.223V13.563C68.0203 12.423 67.843 11.587 67.4883 11.055C67.159 10.4976 66.5257 10.219 65.5883 10.219V9.42096C66.399 9.49696 67.1843 9.53496 67.9443 9.53496C68.983 9.53496 69.971 9.49696 70.9083 9.42096C71.8457 9.31962 72.707 9.18029 73.4923 9.00296ZM85.074 18.579C87.3033 18.579 89.0513 19.2376 90.318 20.555C91.5847 21.8723 92.218 24.0256 92.218 27.015H79.716L79.64 26.293H87.43C87.4553 25.0516 87.3793 23.9116 87.202 22.873C87.0247 21.809 86.746 20.9603 86.366 20.327C85.986 19.6936 85.4793 19.377 84.846 19.377C83.9593 19.377 83.1993 19.9343 82.566 21.049C81.958 22.1636 81.5907 24.013 81.464 26.597L81.578 26.825C81.5527 27.129 81.5273 27.4456 81.502 27.775C81.502 28.1043 81.502 28.4463 81.502 28.801C81.502 30.549 81.7427 31.9676 82.224 33.057C82.7307 34.1463 83.364 34.9443 84.124 35.451C84.884 35.9323 85.6567 36.173 86.442 36.173C86.974 36.173 87.5187 36.097 88.076 35.945C88.6587 35.7676 89.2413 35.4636 89.824 35.033C90.4067 34.577 90.9513 33.9436 91.458 33.133L92.142 33.361C91.838 34.3236 91.3567 35.261 90.698 36.173C90.0393 37.085 89.2033 37.8323 88.19 38.415C87.1767 38.9976 85.9607 39.289 84.542 39.289C82.8193 39.289 81.2993 38.9216 79.982 38.187C78.6647 37.4523 77.626 36.3376 76.866 34.843C76.1313 33.3483 75.764 31.4483 75.764 29.143C75.764 26.787 76.1567 24.8236 76.942 23.253C77.7527 21.6823 78.8547 20.517 80.248 19.757C81.6667 18.9716 83.2753 18.579 85.074 18.579ZM100.042 18.579C101.106 18.579 102.031 18.7183 102.816 18.997C103.627 19.2503 104.21 19.5036 104.564 19.757C105.426 20.3396 105.958 19.9596 106.16 18.617H106.958C106.908 19.3263 106.87 20.2003 106.844 21.239C106.819 22.2523 106.806 23.6076 106.806 25.305H106.008C105.882 24.3676 105.641 23.443 105.286 22.531C104.932 21.619 104.412 20.8716 103.728 20.289C103.07 19.7063 102.208 19.415 101.144 19.415C100.41 19.415 99.7891 19.6303 99.2824 20.061C98.7758 20.4663 98.5224 21.0616 98.5224 21.847C98.5224 22.607 98.7504 23.2783 99.2064 23.861C99.6624 24.4183 100.245 24.963 100.954 25.495C101.689 26.0016 102.449 26.5463 103.234 27.129C104.07 27.7623 104.83 28.3956 105.514 29.029C106.198 29.637 106.743 30.3083 107.148 31.043C107.554 31.7776 107.756 32.6516 107.756 33.665C107.756 34.805 107.427 35.8056 106.768 36.667C106.11 37.503 105.236 38.149 104.146 38.605C103.082 39.061 101.892 39.289 100.574 39.289C99.8144 39.289 99.1304 39.213 98.5224 39.061C97.9398 38.909 97.4331 38.719 97.0024 38.491C96.6731 38.339 96.3564 38.1996 96.0524 38.073C95.7738 37.921 95.5078 37.7943 95.2544 37.693C95.0011 37.617 94.7731 37.7056 94.5704 37.959C94.3931 38.2123 94.2538 38.567 94.1524 39.023H93.3544C93.4051 38.2123 93.4431 37.2243 93.4684 36.059C93.4938 34.8936 93.5064 33.3483 93.5064 31.423H94.3044C94.4564 32.791 94.7351 34.007 95.1404 35.071C95.5458 36.1096 96.0904 36.933 96.7744 37.541C97.4838 38.1236 98.3704 38.415 99.4344 38.415C99.8651 38.415 100.283 38.3263 100.688 38.149C101.094 37.9716 101.423 37.6803 101.676 37.275C101.955 36.8696 102.094 36.3503 102.094 35.717C102.094 34.6023 101.727 33.6776 100.992 32.943C100.283 32.2083 99.3711 31.4103 98.2564 30.549C97.4458 29.8903 96.6731 29.2443 95.9384 28.611C95.2291 27.9523 94.6464 27.243 94.1904 26.483C93.7344 25.6976 93.5064 24.811 93.5064 23.823C93.5064 22.683 93.8104 21.7203 94.4184 20.935C95.0264 20.1496 95.8244 19.567 96.8124 19.187C97.8258 18.7816 98.9024 18.579 100.042 18.579ZM115.885 12.879V19.111H120.369V19.871H115.885V35.223C115.885 35.983 116.025 36.5276 116.303 36.857C116.582 37.161 117 37.313 117.557 37.313C118.013 37.313 118.469 37.1483 118.925 36.819C119.381 36.4643 119.787 35.869 120.141 35.033L120.787 35.375C120.382 36.515 119.761 37.4523 118.925 38.187C118.115 38.9216 117 39.289 115.581 39.289C114.745 39.289 114.011 39.175 113.377 38.947C112.744 38.7443 112.212 38.4276 111.781 37.997C111.224 37.4396 110.857 36.7556 110.679 35.945C110.502 35.109 110.413 34.0323 110.413 32.715V19.871H107.221V19.111H110.413V14.095C111.477 14.095 112.453 14.0063 113.339 13.829C114.251 13.6263 115.1 13.3096 115.885 12.879ZM124.875 39.023C123.735 39.023 122.785 38.8076 122.025 38.377C121.265 37.9463 120.707 37.3763 120.353 36.667C119.998 35.9323 119.821 35.1343 119.821 34.273C119.821 33.1836 120.061 32.297 120.543 31.613C121.049 30.929 121.695 30.3716 122.481 29.941C123.266 29.5103 124.089 29.1556 124.951 28.877C125.837 28.5983 126.673 28.3323 127.459 28.079C128.269 27.8003 128.915 27.4836 129.397 27.129C129.903 26.749 130.157 26.2676 130.157 25.685V22.721C130.157 22.0623 130.043 21.4796 129.815 20.973C129.612 20.441 129.283 20.0356 128.827 19.757C128.396 19.4783 127.826 19.339 127.117 19.339C126.61 19.339 126.103 19.415 125.597 19.567C125.09 19.6936 124.672 19.9216 124.343 20.251C125.052 20.5043 125.597 20.897 125.977 21.429C126.382 21.9356 126.585 22.5183 126.585 23.177C126.585 24.0383 126.281 24.7223 125.673 25.229C125.09 25.7356 124.393 25.989 123.583 25.989C122.671 25.989 121.974 25.7103 121.493 25.153C121.037 24.5703 120.809 23.8736 120.809 23.063C120.809 22.3283 120.986 21.7203 121.341 21.239C121.721 20.7576 122.24 20.3016 122.899 19.871C123.608 19.4656 124.457 19.149 125.445 18.921C126.458 18.693 127.547 18.579 128.713 18.579C129.878 18.579 130.929 18.7056 131.867 18.959C132.804 19.187 133.589 19.6176 134.223 20.251C134.805 20.8336 135.185 21.5556 135.363 22.417C135.54 23.253 135.629 24.317 135.629 25.609V35.945C135.629 36.5783 135.692 37.0216 135.819 37.275C135.945 37.503 136.161 37.617 136.465 37.617C136.693 37.617 136.908 37.5536 137.111 37.427C137.339 37.3003 137.579 37.1483 137.833 36.971L138.213 37.617C137.681 38.073 137.06 38.4276 136.351 38.681C135.667 38.909 134.894 39.023 134.033 39.023C133.095 39.023 132.348 38.8963 131.791 38.643C131.233 38.3643 130.828 37.997 130.575 37.541C130.347 37.085 130.233 36.553 130.233 35.945C129.625 36.9076 128.89 37.6676 128.029 38.225C127.167 38.757 126.116 39.023 124.875 39.023ZM127.573 36.591C128.079 36.591 128.535 36.477 128.941 36.249C129.371 35.9956 129.777 35.5903 130.157 35.033V27.243C129.929 27.623 129.612 27.965 129.207 28.269C128.801 28.573 128.371 28.8896 127.915 29.219C127.459 29.523 127.015 29.865 126.585 30.245C126.179 30.625 125.85 31.0936 125.597 31.651C125.343 32.2083 125.217 32.8796 125.217 33.665C125.217 34.653 125.432 35.3876 125.863 35.869C126.293 36.3503 126.863 36.591 127.573 36.591ZM145.113 12.879V19.111H149.597V19.871H145.113V35.223C145.113 35.983 145.252 36.5276 145.531 36.857C145.809 37.161 146.227 37.313 146.785 37.313C147.241 37.313 147.697 37.1483 148.153 36.819C148.609 36.4643 149.014 35.869 149.369 35.033L150.015 35.375C149.609 36.515 148.989 37.4523 148.153 38.187C147.342 38.9216 146.227 39.289 144.809 39.289C143.973 39.289 143.238 39.175 142.605 38.947C141.971 38.7443 141.439 38.4276 141.009 37.997C140.451 37.4396 140.084 36.7556 139.907 35.945C139.729 35.109 139.641 34.0323 139.641 32.715V19.871H136.449V19.111H139.641V14.095C140.705 14.095 141.68 14.0063 142.567 13.829C143.479 13.6263 144.327 13.3096 145.113 12.879ZM158.513 18.579C160.743 18.579 162.491 19.2376 163.757 20.555C165.024 21.8723 165.657 24.0256 165.657 27.015H153.155L153.079 26.293H160.869C160.895 25.0516 160.819 23.9116 160.641 22.873C160.464 21.809 160.185 20.9603 159.805 20.327C159.425 19.6936 158.919 19.377 158.285 19.377C157.399 19.377 156.639 19.9343 156.005 21.049C155.397 22.1636 155.03 24.013 154.903 26.597L155.017 26.825C154.992 27.129 154.967 27.4456 154.941 27.775C154.941 28.1043 154.941 28.4463 154.941 28.801C154.941 30.549 155.182 31.9676 155.663 33.057C156.17 34.1463 156.803 34.9443 157.563 35.451C158.323 35.9323 159.096 36.173 159.881 36.173C160.413 36.173 160.958 36.097 161.515 35.945C162.098 35.7676 162.681 35.4636 163.263 35.033C163.846 34.577 164.391 33.9436 164.897 33.133L165.581 33.361C165.277 34.3236 164.796 35.261 164.137 36.173C163.479 37.085 162.643 37.8323 161.629 38.415C160.616 38.9976 159.4 39.289 157.981 39.289C156.259 39.289 154.739 38.9216 153.421 38.187C152.104 37.4523 151.065 36.3376 150.305 34.843C149.571 33.3483 149.203 31.4483 149.203 29.143C149.203 26.787 149.596 24.8236 150.381 23.253C151.192 21.6823 152.294 20.517 153.687 19.757C155.106 18.9716 156.715 18.579 158.513 18.579ZM173.482 18.579C174.546 18.579 175.471 18.7183 176.256 18.997C177.067 19.2503 177.649 19.5036 178.004 19.757C178.865 20.3396 179.397 19.9596 179.6 18.617H180.398C180.347 19.3263 180.309 20.2003 180.284 21.239C180.259 22.2523 180.246 23.6076 180.246 25.305H179.448C179.321 24.3676 179.081 23.443 178.726 22.531C178.371 21.619 177.852 20.8716 177.168 20.289C176.509 19.7063 175.648 19.415 174.584 19.415C173.849 19.415 173.229 19.6303 172.722 20.061C172.215 20.4663 171.962 21.0616 171.962 21.847C171.962 22.607 172.19 23.2783 172.646 23.861C173.102 24.4183 173.685 24.963 174.394 25.495C175.129 26.0016 175.889 26.5463 176.674 27.129C177.51 27.7623 178.27 28.3956 178.954 29.029C179.638 29.637 180.183 30.3083 180.588 31.043C180.993 31.7776 181.196 32.6516 181.196 33.665C181.196 34.805 180.867 35.8056 180.208 36.667C179.549 37.503 178.675 38.149 177.586 38.605C176.522 39.061 175.331 39.289 174.014 39.289C173.254 39.289 172.57 39.213 171.962 39.061C171.379 38.909 170.873 38.719 170.442 38.491C170.113 38.339 169.796 38.1996 169.492 38.073C169.213 37.921 168.947 37.7943 168.694 37.693C168.441 37.617 168.213 37.7056 168.01 37.959C167.833 38.2123 167.693 38.567 167.592 39.023H166.794C166.845 38.2123 166.883 37.2243 166.908 36.059C166.933 34.8936 166.946 33.3483 166.946 31.423H167.744C167.896 32.791 168.175 34.007 168.58 35.071C168.985 36.1096 169.53 36.933 170.214 37.541C170.923 38.1236 171.81 38.415 172.874 38.415C173.305 38.415 173.723 38.3263 174.128 38.149C174.533 37.9716 174.863 37.6803 175.116 37.275C175.395 36.8696 175.534 36.3503 175.534 35.717C175.534 34.6023 175.167 33.6776 174.432 32.943C173.723 32.2083 172.811 31.4103 171.696 30.549C170.885 29.8903 170.113 29.2443 169.378 28.611C168.669 27.9523 168.086 27.243 167.63 26.483C167.174 25.6976 166.946 24.811 166.946 23.823C166.946 22.683 167.25 21.7203 167.858 20.935C168.466 20.1496 169.264 19.567 170.252 19.187C171.265 18.7816 172.342 18.579 173.482 18.579Z" fill="#51C206"/>
</svg>
